{"title":"Maggies Plan 2015 Movies BRRip XviD AAC New Source +Sample ☻rDX☻","uid":15506154,"size":740032725,"categoryP":"video","categoryS":"movies","magnet":"?xt=urn:btih:1701f54081522b8d036aa13b908f2292550ae7eb&amp;dn=Maggies+Plan+2015+Movies+BRRip+XviD+AAC+New+Source+%2BSample+%E2%98%BBrDX%E2%98%BB&amp;tr=udp%3A%2F%2Ftracker.leechers-paradise.org%3A6969&amp;tr=udp%3A%2F%2Fzer0day.ch%3A1337&amp;tr=udp%3A%2F%2Fopen.demonii.com%3A1337&amp;tr=udp%3A%2F%2Ftracker.coppersurfer.tk%3A6969&amp;tr=udp%3A%2F%2Fexodus.desync.com%3A6969","seeders":1,"leechers":0,"uploader":"basicssom","files":2,"time":1470587408,"description":"----------------------------------------------------------------\r\nMaggies Plan 2015 English Movies BRRip XviD AAC New Source with Sample ☻rDX☻\r\n\r\nSCREEN SHOTS &amp; POSTER:\r\n  \nhttp://postimage.co.nr/2016/8/browsing/index.htm  \nhttp://postimage.co.nr/2016/8/browsing/1.html  \nhttp://postimage.co.nr/2016/8/browsing/2.html  \nhttp://postimage.co.nr/2016/8/browsing/3.html  \nhttp://postimage.co.nr/2016/8/browsing/4.html  \nhttp://postimage.co.nr/2016/8/browsing/5.html  \nhttp://postimage.co.nr/2016/8/browsing/6.html  \nhttp://postimage.co.nr/2016/8/browsing/7.html  \nhttp://postimage.co.nr/2016/8/browsing/8.html  \nhttp://postimage.co.nr/2016/8/browsing/9.html  \nhttp://postimage.co.nr/2016/8/browsing/10.html\r\n\r\nFormat                                   : Matroska\r\nFormat version                           : Version 4 / Version 2\r\nFile size                                : 699 MiB\r\nDuration                                 : 1 h 38 min\r\nOverall bit rate mode                    : Constant\r\nOverall bit rate                         : 988 kb/s\r\nMovie name                               : Maggies Plan 2015 English Movies BRRip XviD AAC New Source ☻rDX☻\r\n\r\nVideo\r\nID                                       : 2\r\nFormat                                   : AVC\r\nFormat/Info                              : Advanced Video Codec\r\nFormat profile                           :   \r\nFormat settings, CABAC                   : Yes\r\nFormat settings, ReFrames                : 2 frames\r\nFormat settings, GOP                     : M=1, N=12\r\nCodec ID                                 : V_MPEG4/ISO/AVC\r\nDuration                                 : 1 h 38 min\r\nBit rate mode                            : Constant\r\nBit rate                                 : 541 kb/s\r\nWidth                                    : 720 pixels\r\nHeight                                   : 384 pixels\r\nDisplay aspect ratio                     : 1.85:1\r\nFrame rate mode                          : Constant\r\nFrame rate                               : 23.976 FPS\r\nColor space                              : YUV\r\nChroma subsampling                       : 4:2:0\r\nBit depth                                : 8 bits\r\nScan type                                : Progressive\r\nBits/(Pixel*Frame)                       : 0.082\r\nStream size                              : 368 MiB (53%)\r\nTitle                                    : ☻rDX☻\r\nDefault                                  : Yes\r\nForced                                   : No\r\n\r\nAudio\r\nID                                       : 1\r\nFormat                                   : AC-3\r\nFormat/Info                              : Audio Coding 3\r\nMode extension                           : CM (complete main)\r\nFormat settings, Endianness              : Big\r\nCodec ID                                 : A_AC3\r\nDuration                                 : 1 h 38 min\r\nBit rate mode                            : Constant\r\nBit rate                                 : 448 kb/s\r\nChannel(s)                               : 6 channels\r\nChannel positions                        : Front: L C R, Side: L R, LFE\r\nSampling rate                            : 48.0 kHz\r\nFrame rate                               : 31.250 FPS (1536 spf)\r\nCompression mode                         : Lossy\r\nStream size                              : 317 MiB (45%)\r\nTitle                                    : ☻rDX☻\r\nDefault                                  : Yes\r\nForced                                   : No\r\n\r\nIMDB \nhttp://www.imdb.com/title/tt3471098/","torrent":{"xt":"urn:btih:1701f54081522b8d036aa13b908f2292550ae7eb","amp;dn":"Maggies+Plan+2015+Movies+BRRip+XviD+AAC+New+Source+%2BSample+%E2%98%BBrDX%E2%98%BB","amp;tr":["udp%3A%2F%2Ftracker.leechers-paradise.org%3A6969","udp%3A%2F%2Fzer0day.ch%3A1337","udp%3A%2F%2Fopen.demonii.com%3A1337","udp%3A%2F%2Ftracker.coppersurfer.tk%3A6969","udp%3A%2F%2Fexodus.desync.com%3A6969"],"infoHash":"1701f54081522b8d036aa13b908f2292550ae7eb","infoHashBuffer":{"type":"Buffer","data":[23,1,245,64,129,82,43,141,3,106,161,59,144,143,34,146,85,10,231,235]},"announce":[],"urlList":[]}}